<?xml version="1.0" encoding="iso-8859-1"?>
<!-- Generator: Adobe Illustrator 19.0.0, SVG Export Plug-In . SVG Version: 6.00 Build 0)  -->
<svg version="1.1" id="Layer_1" xmlns="http://www.w3.org/2000/svg" xmlns:xlink="http://www.w3.org/1999/xlink" x="0px" y="0px"
	 viewBox="0 0 496.2 496.2" style="enable-background:new 0 0 496.2 496.2;" xml:space="preserve">
<path style="fill:#D5EDEF;" d="M0,248.1C0,111.1,111.1,0,248.1,0s248.1,111.1,248.1,248.1S385.1,496.2,248.1,496.2S0,385.1,0,248.1z
	"/>
<path style="fill:#65A844;" d="M0,248.1h496.2c0,137-111.1,248.1-248.1,248.1S0,385.1,0,248.1z"/>
<path style="fill:#D89C73;" d="M249.1,133.6c0,0-2.2-4.4-1-12.2l-15.6-4.5c2.8,8.5-0.9,16-0.9,16
	C243.2,131.9,249.1,133.6,249.1,133.6z"/>
<g>
	<path style="fill:#EDA87A;" d="M258.7,99.1c2.2-6.3,1.2-10.8-0.6-14.7c-4.4-9.2-13-10.9-21.6-10.7c-11.3,0.3-10,37-8.6,41.9
		c0.7,2.6,1.9,6,4.1,6.3c5.6,0.9,15.6,3.9,18.6,4.4c5.4,0.8,6.5-1.6,6.2-4.9c0-0.1,0.4-1.3,0.4-1.3c0-1.1-0.1-2.6,0.6-4.1
		c0,0,0.2-1,0.1-1.5c0-0.4,0-0.6,0.4-0.7c1.2-0.5,2.7-0.9,3.1-1.3C262.9,110.7,257.6,102.2,258.7,99.1z"/>
	<path style="fill:#EDA87A;" d="M253,117.9c0,0,0.8,0.1,4.5,0c0.5-0.2,1.2-0.7,0.5-1.7C257.5,115.4,255.3,116.9,253,117.9z"/>
	<path style="fill:#EDA87A;" d="M253,117.9c0,0,0.8,1.5,4.2,2.2c0.5-0.1,0.8-0.5,0.9-0.7c0.4-1.1-0.7-1.5-0.7-1.5
		C253.8,117.9,253,117.9,253,117.9z"/>
</g>
<path style="fill:#381A09;" d="M236.2,73.2c-12.1,0.3-23.8,16.9-15,34.7c1.5,3,5.2,4.6,2.4,8.4c0,0,4.8,0.7,8.9-1.3
	c3.4-1.7,4.1-4.9,4.1-4.9c0.6-0.9,1.2-1.9,1.9-3c0.7-1.2-0.3-8,1.1-8.2l19-13.4C254,77.4,250.9,72.9,236.2,73.2z"/>
<path style="fill:#EDA87A;" d="M234.3,106.1c2.2,6.1,4.8,6.3,8.4,5.9l-2.3-9.5l-2-3.8C234.9,99.2,232.1,100.1,234.3,106.1z"/>
<path style="fill:#381A09;" d="M241.1,100.2c-0.2-1.1-0.3-2.1-0.2-2.9c0-1.2,0.2-1.9,0.2-1.9l-4,1.5c0,0.6,0,1.2,0,1.8
	c0,0,0.4-0.1,1.2-0.4h-0.1c0.6,0.9,1.3,2.3,2,4.3C240.1,102.6,241.7,103.7,241.1,100.2z"/>
<path style="fill:#EDA87A;" d="M275.2,422.4c-4.1,0-33.4,0-34.9-0.1c-3.6-0.1-7.1-2.1-6.4-5.5c0.5-2.6,1.6-7.7,1.6-9.3
	c0.3-14.5,0.3-24.1-1.5-34c-5-27.5,0.6-44.8,0.5-47.2c-0.1-1.9-0.5-18.8-0.8-23.2c-0.5-8.5,29.5-2.4,29.2,0.5c-0.3,3.8-2,13-3,24.5
	c-2.6,30.3-11.4,76.2-12.1,80c0,0,31.7,6,31.2,9.7C278.8,419.9,277.7,422.4,275.2,422.4z"/>
<path style="fill:#3D3C3C;" d="M266.7,237.9c0-4.9-19.8-8.9-19.8-8.9l-24.1,3.9c0,0-1.8,7.2-3,15.8c-2,13.9,8.2,55.9,8.2,55.9h37.9
	c1.2-10.6-0.9-22.9-1.1-33.5C265.3,256,266.7,244.5,266.7,237.9z"/>
<path style="fill:#3B8B93;" d="M252.9,135.2c-1.6-0.9-7.5-4-13.1-4c-8.3,0-11.2,1.3-15.8,7.2c-8.3,10.7,2.2,60.8,0.8,77.3
	c-0.5,6-1.7,12.3-2.8,17.8c0,0,18.7,1.2,28,2.5c8.2,1.2,17.8,2.6,17.8,2.6c-0.8-10.5,1.2-65.4,1.2-75
	C269.1,149.7,261.3,140.1,252.9,135.2z"/>
<path style="fill:#3A3A39;" d="M275.2,422.4c-4.1,0-33.4,0-34.9-0.1c-3.6-0.1-7.1-2.1-6.4-5.5c0.5-2.6,45.6-2.9,45.2,0.9
	C278.8,419.9,277.7,422.4,275.2,422.4z"/>
<path style="fill:#545454;" d="M233.8,416.8c0.5-2.6,1.6-7.7,1.6-9.3c0,0,3.3,1.5,6.3,1.8s6-1.2,6-1.2s31.7,6,31.2,9.7
	C278.8,419.9,233.1,420.2,233.8,416.8z"/>
<g>
	<path style="fill:#EDA87A;" d="M249,287.3c3.8,0,1.8-15.8,2.8-20.6l-2.6-5.7c2.3-34.7-1.7-49.8-1.7-49.8
		c2.3-20.7,4.8-60.6,3.4-68.4c-1.3-7.8-20.6-6.9-21.2,1.1c-0.6,7.9-0.3,15-0.2,22.9c0,7.9,2.2,37.4,2.9,44.3
		c0.1,0.9,5.5,49.9,5.5,49.9s-0.1,2-1.2,5.3c-1.6,4.6-1.2,11.5,0.5,15.2C238.8,284.7,245.2,287.3,249,287.3z"/>
	<path style="fill:#EDA87A;" d="M250.2,271.5c0,0-0.4,5,2.2,5.5c2.2,0.4,3,0.3-0.6-10.3C251.8,266.7,250.3,266.8,250.2,271.5z"/>
</g>
<g>
	<path style="fill:#3A3A3A;" d="M244.5,423.4c0,0.2-0.1,0.3-0.2,0.3h-1c-0.1,0-0.2-0.1-0.2-0.3l-0.2-1.3c0-0.2,0.1-0.3,0.3-0.3h1.3
		c0.2,0,0.3,0.1,0.3,0.3L244.5,423.4z"/>
	<path style="fill:#3A3A3A;" d="M241.4,423.2c0,0.2-0.1,0.3-0.2,0.3h-1c-0.1,0-0.2-0.1-0.2-0.3l-0.2-1.3c0-0.2,0.1-0.3,0.3-0.3h1.3
		c0.2,0,0.3,0.1,0.3,0.3L241.4,423.2z"/>
	<path style="fill:#3A3A3A;" d="M265.4,423.5c0,0.2-0.1,0.3-0.2,0.3h-1c-0.1,0-0.2-0.1-0.2-0.3l-0.3-1.3c0-0.2,0.1-0.3,0.3-0.3h1.3
		c0.2,0,0.3,0.1,0.3,0.3L265.4,423.5z"/>
	<path style="fill:#3A3A3A;" d="M261.9,423.4c0,0.2-0.1,0.3-0.2,0.3h-1c-0.1,0-0.2-0.1-0.2-0.3l-0.2-1.3c0-0.2,0.1-0.3,0.3-0.3h1.3
		c0.2,0,0.3,0.1,0.3,0.3L261.9,423.4z"/>
	<path style="fill:#3A3A3A;" d="M272,422.7c0,0.2,0,0.3-0.2,0.3l-1,0.2c-0.1,0-0.3-0.1-0.3-0.3l-0.5-1.2c0-0.2,0.1-0.3,0.2-0.4
		l1.3-0.2c0.2,0,0.3,0.1,0.4,0.2L272,422.7z"/>
	<path style="fill:#3A3A3A;" d="M269,423.3c0,0.2-0.1,0.3-0.2,0.3l-1,0.1c-0.1,0-0.2-0.1-0.3-0.3l-0.4-1.3c0-0.2,0.1-0.3,0.3-0.3
		l1.3-0.2c0.2,0,0.3,0.1,0.3,0.3L269,423.3z"/>
</g>
<polygon style="fill:#307477;" points="254.2,170.3 227.5,170.3 227.5,138.2 254.2,141.7 "/>
<polygon style="fill:#3B8B93;" points="252.9,168.1 226,168.1 226,138.2 240,136.2 252.9,138.2 "/>
<g>
	<path style="fill:#FFFFFF;" d="M247.7,419.2c0.7,0,1.4,0,2,0l3.7-6.3l-1.5-0.7L247.7,419.2z"/>
	<path style="fill:#FFFFFF;" d="M250.4,419.2c0.5,0,0.8,0,0.8,0c0.3,0,0.7,0.1,1.1,0.1l3.1-5.4l-1.5-0.7L250.4,419.2z"/>
	<path style="fill:#FFFFFF;" d="M252.9,419.3c0.6,0,1.2,0,1.9,0.1l2.5-4.5l-1.5-0.7L252.9,419.3z"/>
</g>
<path style="fill:#E0E0E0;" d="M333.8,384.9c-4.2-4.9-10.4-8-17.4-8c-12.6,0-22.9,10.2-22.9,22.9c0,7.2,3.3,13.6,8.4,17.7
	c3.9,3.2,9,5.1,14.4,5.1c12.6,0,22.9-10.2,22.9-22.9C339.3,394.1,337.2,388.9,333.8,384.9z"/>
<path style="fill:#FFFFFF;" d="M327,410.5c7.2-7.2,9.5-17.2,6.8-25.6c-4.2-4.9-10.4-8-17.4-8c-12.6,0-22.9,10.2-22.9,22.9
	c0,7.2,3.3,13.6,8.4,17.7C310.2,419.9,320,417.5,327,410.5z"/>
<g>
	<path style="fill:#3A3A39;" d="M332.1,400.1c1.5-1.8,1.9-7.8,1.9-8.6l3.9,0.3c0,0-2.3-7.7-10.2-11.9v4.3c-2.4,0-7.7,1-8.7,1.2
		c-3.6-2.9-6.9-3-7.6-3l-0.2-4.3l1.9-1c0,0-2.3,0.3-4.3,1l2.2,0.1l0.2,4.2c-3.8,1.1-6.6,5-7.1,5.7c-3.2,0-5.6,1.3-6.4,1.8v-3.5
		c0,0-3.6,4.3-4.3,12.7h1.1c0,0.8,0.3,4.7,3.7,8c0,4.4,2.3,7.5,2.7,8.1l-0.7,0.7l0.2,0.2l0.7-0.7c2.2,1.7,6.2,2.4,7.1,2.5
		c0.4,0.4,3.2,3.3,6.9,4.3v0.4c6.4,0.4,10.9-2.1,10.9-2.1l-0.9-0.8c0.7-1.1,2-4.9,2.2-5.5c2.8-1.2,5.9-5.2,6.5-5.9l3.6,0.3l0.1-0.3
		l-3.7-0.3C333.9,403.9,332.5,400.8,332.1,400.1z M316.9,393.8l6.8,7.4l-3.1,9.1c-1.5,0.8-8.5,1.8-10,2c-2.5-2-5.6-6.2-6.2-7
		c0.3-1,2.3-8,3.2-9.2C308.8,395.7,316,394,316.9,393.8z M294.7,399.2c0,0,0.4-5.4,2.8-8.8l0,0c0,0,2.6-2,6.5-2
		c0.7,3.4,3,6.8,3.5,7.6c-1,1.3-2.9,8-3.2,9.2l-5.9,1.9C295,403.7,294.7,400,294.7,399.2L294.7,399.2z M315.4,422
		c-3.6-0.9-6.4-3.7-6.9-4.2l2.2-5.2c1.4-0.2,8.5-1.2,10.1-2l6.4,3.8c-0.3,0.8-1.5,4.5-2.2,5.3C322.6,421,316.5,421.9,315.4,422z
		 M323.9,401l-6.8-7.4c0.5-1.1,1.7-6.9,1.9-8c1-0.2,6.5-1.2,8.8-1.2c0.8,0.6,5,4,6.1,7l0,0c0,0.1-0.3,6.7-1.9,8.6L323.9,401z"/>
	<path style="fill:#3A3A39;" d="M297.6,386.5c0,0-3.6,4.3-4.3,12.7h0.2c0.1-4.6,1.6-8.9,4.1-12.5L297.6,386.5L297.6,386.5z"/>
	<path style="fill:#3A3A39;" d="M313.1,377.1c0,0-2.3,0.3-4.3,1h0.3C310.3,377.7,311.7,377.3,313.1,377.1L313.1,377.1z"/>
	<path style="fill:#3A3A39;" d="M300.2,415.9l0.2,0.2l0,0C300.4,416,300.3,416,300.2,415.9L300.2,415.9z"/>
</g>
<g>
	<path style="fill:#212121;" d="M332.8,401.8c-1.3,3.1-3.3,6.1-5.9,8.6c-0.8,0.8-1.7,1.6-2.6,2.3l2.7,1.6c-0.3,0.8-1.5,4.5-2.2,5.3
		c-2.3,1.3-8.4,2.2-9.6,2.3c-2.8-0.7-5.2-2.6-6.3-3.7c-0.1,0-0.2,0-0.3,0c1,1,3.5,3,6.4,3.8v0.4c6.4,0.4,10.9-2.1,10.9-2.1l-0.9-0.8
		c0.7-1.1,2-4.9,2.2-5.5c2.8-1.2,5.9-5.2,6.5-5.9l3.6,0.3l0.1-0.3l-3.7-0.3C333.9,405.5,333.3,403.3,332.8,401.8z"/>
	<path style="fill:#212121;" d="M333.8,384.9c0.7,2.1,1,4.4,1.1,6.7l3,0.2c0,0-2-6.6-8.6-10.9C331,382,332.5,383.4,333.8,384.9z"/>
</g>
<g>
</g>
<g>
</g>
<g>
</g>
<g>
</g>
<g>
</g>
<g>
</g>
<g>
</g>
<g>
</g>
<g>
</g>
<g>
</g>
<g>
</g>
<g>
</g>
<g>
</g>
<g>
</g>
<g>
</g>
</svg>
