<?xml version="1.0" encoding="iso-8859-1"?>
<!-- Generator: Adobe Illustrator 18.0.0, SVG Export Plug-In . SVG Version: 6.00 Build 0)  -->
<!DOCTYPE svg PUBLIC "-//W3C//DTD SVG 1.1//EN" "http://www.w3.org/Graphics/SVG/1.1/DTD/svg11.dtd">
<svg version="1.1" id="Capa_1" xmlns="http://www.w3.org/2000/svg" xmlns:xlink="http://www.w3.org/1999/xlink" x="0px" y="0px"
	 viewBox="0 0 152.165 152.165" style="enable-background:new 0 0 152.165 152.165;" xml:space="preserve">
<g>
	<polygon style="fill:#D9FFF8;" points="29.242,72.145 29.242,95.06 37.08,73.527 37.912,73.829 30.074,95.365 44.805,77.81 
		45.484,78.378 30.752,95.936 50.601,84.477 51.041,85.242 31.195,96.702 53.766,92.721 53.918,93.596 31.353,97.574 
		53.918,101.553 53.766,102.427 31.195,98.447 51.041,109.905 50.601,110.672 30.752,99.212 45.484,116.77 44.805,117.338 
		30.074,99.783 37.912,121.32 37.08,121.621 29.242,100.087 29.242,123.003 28.355,123.003 28.355,100.087 20.517,121.621 
		19.685,121.32 27.524,99.783 12.793,117.338 12.113,116.77 26.846,99.212 6.996,110.672 6.556,109.905 26.402,98.447 
		3.832,102.427 3.679,101.553 26.244,97.574 3.679,93.596 3.832,92.721 26.402,96.702 6.556,85.242 6.996,84.477 26.846,95.936 
		12.113,78.378 12.793,77.81 27.524,95.365 19.685,73.829 20.517,73.527 28.355,95.06 28.355,72.145 	"/>
	<polygon style="fill:#D9FFF8;" points="124.705,72.145 124.705,95.06 132.543,73.527 133.374,73.829 125.536,95.365 140.266,77.81 
		140.947,78.378 126.214,95.936 146.063,84.477 146.504,85.242 126.657,96.702 149.228,92.721 149.38,93.596 126.815,97.574 
		149.38,101.553 149.228,102.427 126.657,98.447 146.504,109.905 146.063,110.672 126.214,99.212 140.947,116.77 140.266,117.338 
		125.536,99.783 133.374,121.32 132.543,121.621 124.705,100.087 124.705,123.003 123.817,123.003 123.817,100.087 115.98,121.621 
		115.147,121.32 122.986,99.783 108.255,117.338 107.575,116.77 122.307,99.212 102.459,110.672 102.018,109.905 121.865,98.447 
		99.294,102.427 99.141,101.553 121.707,97.574 99.141,93.596 99.294,92.721 121.865,96.702 102.018,85.242 102.459,84.477 
		122.307,95.936 107.575,78.378 108.255,77.81 122.986,95.365 115.147,73.829 115.98,73.527 123.817,95.06 123.817,72.145 	"/>
	
		<rect x="73.637" y="82.906" transform="matrix(-0.9025 -0.4307 0.4307 -0.9025 102.5402 204.5363)" style="fill-rule:evenodd;clip-rule:evenodd;fill:#5C3F25;" width="1.567" height="15.513"/>
	<path style="fill-rule:evenodd;clip-rule:evenodd;fill:#5C3F25;" d="M81.347,83.08h-5.214c-0.413,0-0.751,0.339-0.751,0.752l0,0
		c0,0.413,0.338,0.75,0.751,0.75h5.214c0.413,0,0.751-0.337,0.751-0.75l0,0C82.097,83.419,81.76,83.08,81.347,83.08z"/>
	<path style="fill-rule:evenodd;clip-rule:evenodd;fill:#21A58D;" d="M28.799,69.67c15.411,0,27.903,12.493,27.903,27.904
		s-12.493,27.903-27.903,27.903v-3.101c13.698,0,24.803-11.105,24.803-24.803c0-13.699-11.105-24.805-24.803-24.805V69.67z
		 M28.799,125.478c-15.411,0-27.904-12.492-27.904-27.903S13.388,69.67,28.799,69.67v3.1C15.1,72.77,3.995,83.875,3.995,97.574
		c0,13.698,11.105,24.803,24.804,24.803V125.478z"/>
	<path style="fill-rule:evenodd;clip-rule:evenodd;fill:#FC5A29;" d="M28.799,67.271c16.736,0,30.304,13.567,30.304,30.304
		c0,3.402-1.471,3.046-2.553,2.93c0.101-0.963,0.152-1.939,0.152-2.93c0-15.411-12.493-27.904-27.903-27.904
		c-13.066,0-24.032,8.98-27.068,21.104c-0.892-0.228-2.535-0.624-1.268-3.961C4.803,75.389,15.853,67.271,28.799,67.271z"/>
	<path style="fill-rule:evenodd;clip-rule:evenodd;fill:#21A58D;" d="M124.261,69.67c15.411,0,27.904,12.493,27.904,27.904
		s-12.493,27.903-27.904,27.903v-3.101c13.698,0,24.804-11.105,24.804-24.803c0-13.699-11.105-24.805-24.804-24.805V69.67z
		 M124.261,125.478c-15.411,0-27.904-12.492-27.904-27.903S108.85,69.67,124.261,69.67v3.1c-13.698,0-24.804,11.105-24.804,24.805
		c0,13.698,11.106,24.803,24.804,24.803V125.478z"/>
	<path style="fill-rule:evenodd;clip-rule:evenodd;fill:#FC5A29;" d="M124.261,69.67c-13.065,0-24.032,8.98-27.068,21.104
		c-0.892-0.228-2.536-0.624-1.268-3.961c4.341-11.424,15.39-19.542,28.335-19.542V69.67z"/>
	<path style="fill:#FC5A29;" d="M28.869,96.085l35.068,1.663c1.265,0.061,2.588-0.061,3.859-0.385
		c1.156-0.296,2.247-0.751,3.177-1.383l7.76-5.266c0.816-0.555,1.554-1.253,2.23-2.027c0.696-0.799,1.327-1.683,1.909-2.58
		l10.2-15.691c0.675-1.038,1.46-2.035,2.347-2.927c0.829-0.833,1.751-1.576,2.758-2.184l12.845-7.723l1.529,2.558l-12.846,7.724
		c-0.782,0.47-1.509,1.06-2.173,1.729c-0.739,0.741-1.396,1.577-1.962,2.446L85.372,87.73c-0.65,0.999-1.361,1.995-2.166,2.919
		c-0.826,0.946-1.749,1.813-2.803,2.53l-7.76,5.266c-1.246,0.844-2.654,1.441-4.111,1.814c-1.545,0.393-3.171,0.54-4.735,0.467
		l-35.068-1.664L28.869,96.085z"/>
	<polygon style="fill:#FC5A29;" points="122.842,98.029 104.522,41.171 107.359,40.261 125.679,97.118 	"/>
	<path style="fill:#FC5A29;" d="M64.166,82.609l6.833-3.179c0.933-0.434,1.796-1.018,2.601-1.686
		c0.827-0.688,1.616-1.486,2.367-2.313l12.928-14.235c0.852-0.941,1.81-1.819,2.855-2.576c0.972-0.704,2.024-1.305,3.144-1.752
		l14.299-5.719l1.11,2.767l-14.3,5.72c-0.873,0.35-1.712,0.831-2.501,1.402c-0.874,0.633-1.681,1.373-2.4,2.166L78.174,77.439
		c-0.812,0.895-1.692,1.78-2.671,2.593c-1.001,0.831-2.08,1.562-3.255,2.108l-6.833,3.178L64.166,82.609z"/>
	<polygon style="fill:#FC5A29;" points="69.726,98.282 51.674,58.967 54.383,57.729 72.436,97.043 	"/>
	<polygon style="fill:#FC5A29;" points="57.332,66.203 29.937,98.536 27.835,101.018 27.327,97.808 21.644,61.885 24.586,61.418 
		29.762,94.129 55.055,64.275 	"/>
	<path style="fill:#FC5A29;" d="M15.27,63.017c-0.825,0-1.495-0.668-1.495-1.493c0-0.827,0.669-1.495,1.495-1.495h39.365
		c0.825,0,1.495,0.668,1.495,1.495c0,0.825-0.67,1.493-1.495,1.493H15.27z"/>
	<path style="fill-rule:evenodd;clip-rule:evenodd;fill:#5C3F25;" d="M65.097,53.473c-0.195,2.311-5.334,2.876-7.616,4.813
		c-2.282,1.935-6.772,1.574-8.476,0.123c-1.704-1.449-7.849-1.482-8.006-3.813c-0.158-2.33,7.426-0.997,12.215-1.169
		C58.004,53.256,65.235,51.836,65.097,53.473z"/>
	<path style="fill:#5C3F25;" d="M79.195,37.171c-0.777,0.277-1.633-0.128-1.91-0.905c-0.276-0.777,0.128-1.632,0.906-1.909
		l12.543-4.479c1.515-0.541,3.437-0.543,5.121-0.041c1.625,0.484,3.081,1.449,3.857,2.871l2.963,5.445
		c0.168,0.309,0.436,0.61,0.75,0.827c0.213,0.147,0.436,0.242,0.63,0.242h1.886c0.827,0,1.495,0.67,1.495,1.494
		c0,0.826-0.669,1.495-1.495,1.495h-1.886c-0.833,0-1.634-0.305-2.324-0.779c-0.696-0.48-1.291-1.156-1.672-1.854l-2.963-5.444
		c-0.365-0.671-1.163-1.159-2.093-1.436c-1.104-0.329-2.329-0.34-3.265-0.007L79.195,37.171z"/>
	<path style="fill:#5C3F25;" d="M115.656,27.334c0.805,0.161,1.329,0.945,1.167,1.751c-0.161,0.806-0.946,1.329-1.752,1.169
		l-2.418-0.49c-0.78-0.157-1.305-0.14-1.566,0.062c-0.241,0.184-0.365,0.65-0.37,1.406l-0.041,6.197
		c-0.005,0.81-0.191,1.836-0.61,2.649c-0.427,0.829-1.091,1.487-2.052,1.701l-1.754,0.392c-0.802,0.177-1.597-0.331-1.775-1.134
		c-0.177-0.803,0.331-1.598,1.133-1.774l1.754-0.392c0.031-0.007-0.008-0.059,0.044-0.159c0.194-0.377,0.281-0.882,0.283-1.295
		l0.04-6.197c0.011-1.735,0.523-2.979,1.526-3.754c0.983-0.759,2.309-0.956,3.972-0.621L115.656,27.334z"/>
	<path style="fill-rule:evenodd;clip-rule:evenodd;fill:#21A58D;" d="M109.723,44.215h3.097v2.607h-4.63l-0.087-0.293
		C107.721,45.258,108.45,44.215,109.723,44.215L109.723,44.215z M113.954,44.215h3.15v2.607h-3.15V44.215L113.954,44.215z
		 M118.238,44.215h3.15v2.607h-3.15V44.215L118.238,44.215z M122.523,44.215h3.149v2.607h-3.149V44.215L122.523,44.215z
		 M126.807,44.215h2.161c1.273,0,3.345,1.028,3.009,2.314l-0.076,0.293h-5.094V44.215L126.807,44.215z M131.605,47.955l-0.821,3.15
		h-3.977v-3.15H131.605L131.605,47.955z M130.488,52.239l-0.822,3.151h-2.859v-3.151H130.488L130.488,52.239z M129.37,56.523
		l-0.823,3.151h-1.741v-3.151H129.37L129.37,56.523z M128.252,60.809l-0.183,0.704c-0.198,0.755-0.495,1.424-1.262,1.845v-2.549
		H128.252L128.252,60.809z M125.672,63.729c-0.368,0.063-0.796,0.097-1.294,0.097h-1.855v-3.017h3.149V63.729L125.672,63.729z
		 M121.388,63.825h-3.15v-3.017h3.15V63.825L121.388,63.825z M117.104,63.825h-1.497c-0.566,0-1.148-0.206-1.653-0.546v-2.471h3.15
		V63.825L117.104,63.825z M112.82,62.042c-0.091-0.17-0.166-0.347-0.221-0.529l-0.211-0.704h0.433V62.042L112.82,62.042z
		 M112.047,59.675l-0.945-3.151h1.718v3.151H112.047L112.047,59.675z M110.762,55.391l-0.946-3.151h3.004v3.151H110.762
		L110.762,55.391z M109.476,51.105l-0.945-3.15h4.289v3.15H109.476L109.476,51.105z M113.954,47.955v3.15h3.15v-3.15H113.954
		L113.954,47.955z M118.238,47.955v3.15h3.15v-3.15H118.238L118.238,47.955z M122.523,47.955v3.15h3.149v-3.15H122.523
		L122.523,47.955z M113.954,52.239v3.151h3.15v-3.151H113.954L113.954,52.239z M118.238,52.239v3.151h3.15v-3.151H118.238
		L118.238,52.239z M122.523,52.239v3.151h3.149v-3.151H122.523L122.523,52.239z M113.954,56.523v3.151h3.15v-3.151H113.954
		L113.954,56.523z M118.238,56.523v3.151h3.15v-3.151H118.238L118.238,56.523z M122.523,56.523v3.151h3.149v-3.151H122.523z"/>
	<path style="fill-rule:evenodd;clip-rule:evenodd;fill:#5C3F25;" d="M28.799,103.171c3.083,0,5.597-2.514,5.597-5.598
		c0-3.083-2.514-5.598-5.597-5.598s-5.598,2.515-5.598,5.598C23.201,100.657,25.716,103.171,28.799,103.171z"/>
	<path style="fill-rule:evenodd;clip-rule:evenodd;fill:#5C3F25;" d="M124.261,103.171c3.083,0,5.598-2.514,5.598-5.598
		c0-3.083-2.515-5.598-5.598-5.598c-3.083,0-5.598,2.515-5.598,5.598C118.663,100.657,121.178,103.171,124.261,103.171z"/>
	<g>
		<path style="fill-rule:evenodd;clip-rule:evenodd;fill:#D9FFF8;" d="M71.081,87.192c5.782,0,10.469,4.688,10.469,10.47
			c0,5.782-4.687,10.469-10.469,10.469v-2.475c4.415-0.001,7.994-3.579,7.994-7.994c0-4.415-3.579-7.994-7.994-7.994V87.192z
			 M71.08,87.192L71.08,87.192l0.001,2.476H71.08c-4.415,0-7.994,3.579-7.994,7.994c0,4.415,3.579,7.994,7.994,7.994h0.001v2.475
			H71.08c-5.782,0-10.469-4.687-10.469-10.469C60.611,91.881,65.298,87.192,71.08,87.192z"/>
		<polygon style="fill-rule:evenodd;clip-rule:evenodd;fill:#D9FFF8;" points="78.259,103.464 77.046,104.705 71.947,99.722 
			71.947,106.852 70.213,106.852 70.213,99.791 65.277,104.841 64.038,103.628 69.02,98.528 61.89,98.528 61.89,96.795 
			68.953,96.795 63.902,91.859 65.114,90.618 70.213,95.603 70.213,88.474 71.947,88.474 71.947,95.534 76.883,90.484 
			78.124,91.695 73.14,96.795 80.27,96.795 80.27,98.528 73.208,98.528 		"/>
	</g>
	
		<rect x="66.957" y="96.907" transform="matrix(-0.9025 -0.4307 0.4307 -0.9025 83.801 228.2953)" style="fill-rule:evenodd;clip-rule:evenodd;fill:#5C3F25;" width="1.567" height="15.512"/>
	<path style="fill-rule:evenodd;clip-rule:evenodd;fill:#5C3F25;" d="M68.276,110.801h-5.214c-0.414,0-0.75,0.337-0.75,0.749l0,0
		c0,0.414,0.337,0.751,0.75,0.751h5.214c0.413,0,0.751-0.337,0.751-0.751l0,0C69.027,111.138,68.689,110.801,68.276,110.801z"/>
</g>
<g>
</g>
<g>
</g>
<g>
</g>
<g>
</g>
<g>
</g>
<g>
</g>
<g>
</g>
<g>
</g>
<g>
</g>
<g>
</g>
<g>
</g>
<g>
</g>
<g>
</g>
<g>
</g>
<g>
</g>
</svg>
